<?xml version="1.0" encoding="UTF-8" standalone="no"?>
<svg
   version="1.0"
   width="505.49744pt"
   height="505.50085pt"
   viewBox="0 0 505.49744 505.50085"
   preserveAspectRatio="xMidYMid meet"
   id="svg4"
   sodipodi:docname="api-gateway.svg"
   inkscape:version="1.1.1 (3bf5ae0d25, 2021-09-20)"
   xmlns:inkscape="http://www.inkscape.org/namespaces/inkscape"
   xmlns:sodipodi="http://sodipodi.sourceforge.net/DTD/sodipodi-0.dtd"
   xmlns:xlink="http://www.w3.org/1999/xlink"
   xmlns="http://www.w3.org/2000/svg"
   xmlns:svg="http://www.w3.org/2000/svg">
  <defs
     id="defs8">
    <linearGradient
       x1="0"
       y1="0"
       y2="1"
       id="a">
      <stop
         stop-color="#2583EE"
         offset="0%"
         id="stop1142" />
      <stop
         stop-color="#712F90"
         offset="100%"
         id="stop1144" />
    </linearGradient>
    <linearGradient
       inkscape:collect="always"
       xlink:href="#a"
       id="linearGradient2639"
       x1="1.500005"
       y1="3.00001"
       y2="505.49914"
       gradientTransform="scale(0.99999663)"
       x2="505.49914"
       gradientUnits="userSpaceOnUse" />
  </defs>
  <sodipodi:namedview
     id="namedview6"
     pagecolor="#505050"
     bordercolor="#ffffff"
     borderopacity="1"
     inkscape:pageshadow="0"
     inkscape:pageopacity="0"
     inkscape:pagecheckerboard="1"
     inkscape:document-units="pt"
     showgrid="false"
     inkscape:zoom="0.5"
     inkscape:cx="-18"
     inkscape:cy="368"
     inkscape:window-width="3440"
     inkscape:window-height="1346"
     inkscape:window-x="-11"
     inkscape:window-y="-11"
     inkscape:window-maximized="1"
     inkscape:current-layer="svg4"
     fit-margin-top="0"
     fit-margin-left="0"
     fit-margin-right="0"
     fit-margin-bottom="0" />
  <path
     id="path1804"
     style="stroke-width:1.05312;fill:url(#linearGradient2639)"
     d="m 289.97628,0.00612373 c -0.68559,0.012216 -1.37602,0.043529 -2.06918,0.092563 C 269.29944,1.4119329 254.23113,16.42835 252.85575,35.030742 c -1.18898,16.090689 7.67559,30.241859 20.95549,36.844949 v 62.924189 h 76.87808 c 11.05044,0 20.00937,8.95893 20.00937,20.00936 v 81.09058 h 13.69061 c 11.05044,0 20.00937,-8.95787 20.00937,-20.00936 v -94.7812 c 0,-11.05044 -8.95893,-20.00937 -20.00937,-20.00937 H 307.51122 V 71.875691 c 12.48163,-6.205009 21.06249,-19.079456 21.06249,-33.963263 0,-21.167403 -17.34559,-38.28380437 -38.59743,-37.90630137 z M 121.10819,101.09989 c -11.05043,0 -20.00936,8.95893 -20.00936,20.00937 V 235.89982 H 71.872569 C 65.270532,222.61992 51.120344,213.75531 35.029656,214.94429 16.427262,216.31862 1.4118985,231.388 0.09759918,249.99566 -1.4705032,272.17867 16.062179,290.6623 37.911355,290.6623 c 14.883808,0 27.756205,-8.58086 33.961214,-21.06249 h 29.226261 v 0.001 h 33.69998 V 154.80858 c 0,-11.05149 8.95893,-20.00936 20.00936,-20.00936 h 85.30308 V 121.1086 c 0,-11.05149 -8.95893,-20.00937 -20.00936,-20.00937 z m 115.88687,62.40586 c -2.31814,0.0278 -7.0096,0.61846 -11.46299,4.88099 -6.53165,6.19234 -39.27771,37.23663 -52.42586,49.79098 -5.76819,5.59856 -5.34379,11.96348 -5.34379,12.55727 v 2.79943 c 0.50897,-2.20549 1.35693,-3.81863 3.22315,-6.10896 3.7324,-4.75025 9.84221,-6.02265 12.30222,-6.36193 12.38469,-1.6117 30.70689,-3.64802 49.11427,-4.15697 32.65834,-1.01791 54.20506,1.69693 54.20506,1.69693 l 45.72044,-43.51543 c 0,0 -24.0066,-4.58041 -51.40563,-7.80382 -17.89848,-2.12068 -33.67534,-3.22225 -42.49736,-3.73119 -0.14849,0 -0.65673,-0.0567 -1.42951,-0.0473 z m -69.23264,70.02867 c 0.0848,9.16127 0.4255,23.58232 1.52826,39.78424 1.78134,27.48385 5.3438,51.91368 5.3438,51.91368 l 45.72246,-43.51542 c 0,0 -1.69836,-21.8028 1.0161,-54.29146 0,0 -50.6417,-6.1061 -53.61062,6.10896 z m 171.52145,-51.06421 -45.72245,43.51544 c 0,0 1.69785,21.62954 -0.9318,54.203 -1.52682,18.40739 -4.41143,36.56139 -6.617,48.86127 -0.42408,2.46 -2.03642,8.396 -6.9563,11.95872 -2.23504,1.54143 -3.72448,2.2956 -5.6914,2.74183 11.68042,-3.8006 8.23775,-53.04497 8.23775,-53.04497 -32.65823,1.10272 -54.29141,-1.61055 -54.29141,-1.61055 l -45.80679,43.43111 c 0,0 24.26215,4.75162 51.57634,7.8902 15.43848,1.78137 36.39008,3.22216 39.27417,3.39179 0.28687,0.0718 0.55204,0.0261 0.73634,0.01 -0.1084,0.0225 -0.20072,0.0553 -0.31268,0.0761 1.01795,0.0848 1.95113,0.0858 2.79942,0.17072 0.59386,0 6.95515,0.76232 12.80821,-4.75139 13.14815,-12.55438 45.80785,-43.76939 52.33954,-49.96172 5.93784,-5.68337 5.43012,-12.04574 5.43012,-12.63954 -0.0848,-8.82201 -0.42504,-24.6004 -1.61254,-42.58368 -1.86624,-27.48385 -5.25952,-51.65862 -5.25952,-51.65863 z m 131.17982,66.17201 c -16.09068,-1.18792 -30.24299,7.67971 -36.84292,20.96171 h -29.2221 v -0.004 h -33.69998 v 81.09059 c 0,11.05148 -8.95893,20.00936 -20.00937,20.00936 h -81.09058 v 62.92625 c -13.2799,6.60309 -22.14447,20.75426 -20.95549,36.84495 1.37538,18.60239 16.44369,33.61881 35.05135,34.93205 22.18301,1.56916 40.66661,-15.96557 40.66661,-37.8158 0,-14.88381 -8.58086,-27.75619 -21.06249,-33.9612 v -29.2242 h 81.09058 c 11.05044,0 20.00937,-8.95893 20.00937,-20.00937 v -81.08852 h 29.2283 c 6.20607,12.47847 19.07641,21.05631 33.95917,21.05631 21.85022,0 39.3818,-18.48358 37.81369,-40.6687 -1.31525,-18.60871 -16.33269,-33.67603 -34.93614,-35.0493 z m -349.3555,54.6617 c -11.05043,0 -20.00936,8.95787 -20.00936,20.00936 v 61.07709 c 0,11.05149 8.95893,20.00937 20.00936,20.00937 h 94.7812 c 11.05044,0 20.00937,-8.95788 20.00937,-20.00937 v -13.69062 h -81.09059 c -11.05043,0 -20.00936,-8.95787 -20.00936,-20.00936 v -47.38647 z"
     fill="url(#a)" />
</svg>
